<?xml version="1.0" encoding="iso-8859-1"?>
<!-- Uploaded to: SVG Repo, www.svgrepo.com, Generator: SVG Repo Mixer Tools -->
<svg height="800px" width="800px" version="1.1" id="Layer_1" xmlns="http://www.w3.org/2000/svg"
	 viewBox="0 0 512 512" xml:space="preserve">
<g transform="translate(1 1)">
	<path style="fill:#CCCCCC;" d="M502.467,255c0,136.533-110.933,247.467-247.467,247.467S7.533,391.533,7.533,255
		S118.467,7.533,255,7.533S502.467,118.467,502.467,255"/>
	<path style="fill:#E2E3E5;" d="M476.867,255c0,136.533-98.987,247.467-221.867,247.467S33.133,391.533,33.133,255
		S132.12,7.533,255,7.533S476.867,118.467,476.867,255"/>
	<path style="fill:#FFFFFF;" d="M33.133,255C33.133,118.467,132.12,7.533,255,7.533C118.467,7.533,7.533,118.467,7.533,255
		S118.467,502.467,255,502.467C132.12,502.467,33.133,391.533,33.133,255"/>
	<path style="fill:#E0E0E0;" d="M198.68,178.2h-70.827c-10.24,0-17.92,7.68-17.92,17.92v109.227c0,10.24,7.68,17.92,17.92,17.92
		h70.827c3.413,0,5.973,0.853,9.387,2.56L321.56,431.64c11.947,6.827,27.307-1.707,27.307-15.36V85.187
		c0-13.653-15.36-22.187-27.307-15.36L208.067,175.64C205.507,177.347,202.093,178.2,198.68,178.2"/>
	<path style="fill:#F0F0F0;" d="M198.68,178.2h-70.827c-10.24,0-17.92,7.68-17.92,17.92v109.227c0,10.24,7.68,17.92,17.92,17.92
		h70.827c3.413,0,5.973,0.853,9.387-8.533L306.2,420.547c11.947,17.92,17.067,9.387,17.067-4.267V85.187
		c0-13.653-5.12-7.68-17.067-0.853l-98.133,91.307C205.507,177.347,202.093,178.2,198.68,178.2"/>
	<g>
		<path style="fill:#B6B6B6;" d="M330.947,442.733c-4.267,0-9.387-0.853-13.653-3.413c-0.853,0-0.853-0.853-1.707-0.853
			l-112.64-105.813c-0.853-0.853-2.56-0.853-4.267-0.853h-70.827c-14.507,0-26.453-11.947-26.453-26.453V196.12
			c0-14.507,11.947-26.453,26.453-26.453h70.827c1.707,0,2.56,0,4.267-0.853l112.64-104.96c0.853,0,0.853-0.853,1.707-0.853
			c8.533-5.12,17.92-5.12,26.453,0c8.533,4.267,13.653,12.8,13.653,22.187V416.28c0,9.387-5.12,17.92-13.653,23.04
			C340.333,441.88,335.213,442.733,330.947,442.733z M326.68,424.813c4.267,1.707,7.68,0.853,8.533,0
			c1.707-0.853,5.12-3.413,5.12-8.533V85.187c0-5.12-3.413-7.68-5.12-8.533c-1.707-0.853-5.12-2.56-8.533,0l-112.64,104.96
			c-0.853,0-0.853,0.853-1.707,0.853c-4.267,2.56-8.533,3.413-13.653,3.413h-70.827c-5.12,0-9.387,4.267-9.387,9.387v109.227
			c0,5.12,4.267,9.387,9.387,9.387h70.827c5.12,0,9.387,0.853,13.653,3.413c0.853,0,0.853,0.853,1.707,0.853L326.68,424.813z"/>
		<path style="fill:#B6B6B6;" d="M255,511C114.2,511-1,395.8-1,255S114.2-1,255-1s256,115.2,256,256S395.8,511,255,511z M255,16.067
			C123.587,16.067,16.067,123.587,16.067,255S123.587,493.933,255,493.933S493.933,386.413,493.933,255S386.413,16.067,255,16.067z"
			/>
	</g>
</g>
</svg>