<svg width="210" height="28" fill="none" xmlns="http://www.w3.org/2000/svg"><path d="M45.4 19.1c.1 0 .2 0 .3.1.1 0 .2.1.3.2l1.5 1.6c-.7.9-1.5 1.5-2.5 1.9-1 .4-2.1.6-3.5.6-1.2 0-2.3-.2-3.3-.6-1-.4-1.8-1-2.5-1.7s-1.2-1.6-1.6-2.6c-.4-1-.5-2.1-.5-3.3 0-1.2.2-2.3.6-3.3.4-1 1-1.9 1.7-2.6.7-.7 1.6-1.3 2.7-1.7 1-.4 2.2-.6 3.4-.6.6 0 1.2.1 1.7.2s1 .3 1.5.4c.5.2.9.4 1.3.7.4.3.7.5 1 .9L46.2 11l-.3.3c-.1.1-.3.1-.5.1-.1 0-.3 0-.4-.1-.1-.1-.2-.1-.4-.2-.1-.1-.3-.2-.4-.3-.2-.1-.3-.2-.6-.3-.2-.1-.5-.2-.8-.2-.3-.1-.6-.1-1-.1-.7 0-1.3.1-1.9.4-.6.2-1 .6-1.5 1-.4.4-.7 1-.9 1.6-.2.6-.3 1.4-.3 2.1 0 .8.1 1.6.3 2.2.2.6.5 1.2.9 1.6.4.4.8.8 1.4 1 .5.2 1.1.3 1.7.3h.9c.3 0 .5-.1.8-.2.2-.1.5-.2.7-.3.2-.1.4-.3.7-.5.1-.1.2-.1.3-.2.3-.1.4-.1.5-.1zm18.3 4.2h-3.8v-6.8h-6.6v6.8h-3.8V7.1h3.8v6.8h6.6V7.1h3.8v16.2zM77.2 7.1V10h-6.6v3.8h5.1v2.8h-5.1v3.9h6.6v2.9H66.8V7.1h10.4zm13.5 12c.1 0 .2 0 .3.1.1 0 .2.1.3.2l1.5 1.6c-.7.9-1.5 1.5-2.5 1.9-1 .4-2.1.6-3.5.6-1.2 0-2.3-.2-3.3-.6-1-.4-1.8-1-2.5-1.7s-1.2-1.6-1.6-2.6c-.4-1-.5-2.1-.5-3.3 0-1.2.2-2.3.6-3.3.4-1 1-1.9 1.7-2.6.8-.9 1.7-1.4 2.7-1.8 1-.4 2.2-.6 3.4-.6.6 0 1.2.1 1.7.2s1 .3 1.5.4c.5.1.9.4 1.3.6.4.3.7.5 1 .9l-1.3 1.7-.3.3c-.1.1-.3.1-.5.1-.1 0-.3 0-.4-.1-.1-.1-.2-.1-.4-.2-.1-.1-.3-.2-.4-.3-.2-.1-.3-.2-.6-.3-.2-.1-.5-.2-.8-.2-.3-.1-.6-.1-1-.1-.7 0-1.3.1-1.9.4-.6.2-1 .6-1.5 1-.4.4-.7 1-.9 1.6-.2.6-.3 1.4-.3 2.1 0 .8.1 1.6.3 2.2.2.6.5 1.2.9 1.6.4.4.8.8 1.4 1 .5.2 1.1.3 1.7.3h.9c.3 0 .5-.1.8-.2.2-.1.5-.2.7-.3.2-.1.4-.3.7-.5.1-.1.2-.1.3-.2.2.1.4.1.5.1zm7.9-5.4h.6c.6 0 1-.2 1.2-.5l3.6-5.3c.2-.3.4-.5.7-.6.3-.1.6-.2.9-.2h3.3l-4.8 6.5c-.2.2-.3.4-.5.6-.2.2-.4.3-.6.4.3.1.5.2.8.4.2.2.5.4.6.7l4.9 7.5h-4c-.1 0-.3-.1-.4-.1-.1 0-.2-.1-.3-.2-.1-.1-.2-.2-.2-.3l-3.7-5.6c-.1-.2-.3-.4-.5-.4-.2-.1-.5-.1-.8-.1h-.9v6.9h-3.8V7.1h3.8v6.6h.1zm11.5 1.5h6V18h-6v-2.8zm20.2-8.1v1.4c0 .2 0 .4-.1.6-.1.2-.1.4-.3.5l-7.6 10.8h7.7v2.9h-12.5v-1.4c0-.2 0-.3.1-.5s.1-.3.2-.5l7.6-10.9h-7.3V7.1h12.2zm6.2 16.2h-3.8V7.1h3.8v16.2zm11.7-7.4c.1.3.3.6.4.9.1.3.3.6.4.9.1-.3.3-.6.4-.9.1-.3.3-.6.4-.9l4.1-8.2c.1-.1.1-.2.2-.3.1-.1.2-.1.3-.2.1 0 .2-.1.3-.1h3.3v16.2h-3.3V14c0-.5 0-.9.1-1.5l-4.3 8.3c-.1.3-.3.5-.5.6-.2.1-.5.2-.8.2h-.5c-.3 0-.5-.1-.8-.2-.2-.1-.4-.3-.5-.6l-4.3-8.3c0 .3.1.5.1.8v10H140V7.1h3.3c.1 0 .2 0 .3.1.1 0 .2.1.3.2.1.1.2.2.2.3l4.1 8.2zm21.3 0c.1.3.3.6.4.9.1.3.3.6.4.9.1-.3.3-.6.4-.9.1-.3.3-.6.4-.9l4.2-8.2c.1-.1.1-.2.2-.3.1-.1.2-.1.3-.2.1 0 .2-.1.3-.1h3.3v16.2h-3.3V14c0-.5 0-.9.1-1.5l-4.3 8.3c-.1.3-.3.5-.5.6-.2.1-.5.2-.8.2h-.5c-.3 0-.5-.1-.8-.2-.2-.1-.4-.3-.5-.6l-4.3-8.3c0 .3.1.5.1.8v10h-3.3V7.1h3.3c.1 0 .2 0 .3.1.1 0 .2.1.3.2.1.1.2.2.2.3l4.1 8.2zM193 7.1V10h-6.6v3.8h5.1v2.8h-5.1v3.9h6.6v2.9h-10.4V7.1H193zm6.3 10.2v6h-3.8V7.1h5.3c1.2 0 2.2.1 3 .4.8.2 1.5.6 2 1s.9.9 1.1 1.5c.2.6.4 1.2.4 1.9 0 .5-.1 1-.2 1.5s-.4.9-.6 1.3c-.3.4-.6.7-1 1.1-.4.3-.9.6-1.4.8.3.1.5.3.7.5.2.2.4.4.6.7l3.4 5.6h-3.4c-.6 0-1.1-.2-1.4-.7l-2.7-4.7c-.1-.2-.3-.4-.4-.4-.2-.1-.4-.1-.7-.1h-.9v-.2zm0-2.6h1.5c.5 0 .9-.1 1.3-.2s.7-.3.9-.5c.2-.2.4-.5.5-.8.1-.3.2-.6.2-1 0-.7-.2-1.3-.7-1.7-.5-.4-1.2-.6-2.1-.6h-1.5v4.8h-.1z" fill="#333646"/><path d="M12.7 0L0 12.6v12.7h25.3V12.6L12.7 0zm-2.5 22.2l-5.5-5.5 2.6-2.6 2.8 2.8 6.8-6.9 2.6 2.6-9.3 9.6z" fill="url(#paint0_linear)"/><defs><linearGradient id="paint0_linear" x1="30.766" y1="3.291" x2="-3.352" y2="29.115" gradientUnits="userSpaceOnUse"><stop stop-color="#0F7FEB"/><stop offset="1" stop-color="#00CEFF"/></linearGradient></defs></svg>
