<svg width="165" height="22" fill="none" xmlns="http://www.w3.org/2000/svg"><path d="M35.672 15.007c.078 0 .157 0 .236.079.078 0 .157.078.235.157l1.179 1.257c-.55.707-1.179 1.179-1.965 1.493-.785.314-1.65.471-2.75.471-.942 0-1.807-.157-2.592-.471-.786-.314-1.415-.786-1.965-1.336s-.942-1.257-1.257-2.043c-.314-.785-.393-1.65-.393-2.593 0-.942.158-1.807.472-2.592a6.145 6.145 0 011.335-2.043A5.768 5.768 0 0130.33 6.05c.786-.314 1.728-.471 2.671-.471.472 0 .943.078 1.336.157.393.078.786.235 1.179.314.392.157.707.314 1.021.55.314.236.55.393.786.707L36.3 8.643l-.235.236c-.079.078-.236.078-.393.078-.079 0-.236 0-.314-.078-.079-.079-.158-.079-.315-.158-.078-.078-.236-.157-.314-.235-.157-.079-.236-.157-.471-.236a1.48 1.48 0 00-.629-.157c-.236-.079-.471-.079-.786-.079-.55 0-1.021.079-1.493.315-.471.157-.785.471-1.178.785-.314.315-.55.786-.707 1.257-.157.472-.236 1.1-.236 1.65 0 .629.079 1.258.236 1.729.157.471.393.943.707 1.257.314.314.628.629 1.1.786.393.157.864.236 1.336.236h.707c.235 0 .393-.079.628-.158.157-.078.393-.157.55-.235.157-.079.314-.236.55-.393.079-.079.157-.079.236-.157.236-.079.314-.079.393-.079zm14.378 3.3h-2.985v-5.343h-5.186v5.343h-2.986V5.58h2.986v5.342h5.186V5.58h2.985v12.728zM60.658 5.58v2.278h-5.186v2.986h4.007v2.2h-4.007v3.064h5.185v2.279h-8.17V5.579h8.17zm10.607 9.428c.078 0 .157 0 .235.079.079 0 .157.078.236.157l1.179 1.257c-.55.707-1.179 1.179-1.965 1.493-.785.314-1.65.471-2.75.471-.943 0-1.807-.157-2.593-.471-.785-.314-1.414-.786-1.964-1.336s-.943-1.257-1.257-2.043c-.314-.785-.393-1.65-.393-2.593 0-.942.157-1.807.472-2.592A6.145 6.145 0 0163.8 7.386c.629-.707 1.336-1.1 2.122-1.415.785-.314 1.728-.471 2.671-.471.472 0 .943.079 1.336.157.393.079.786.236 1.178.314.393.079.708.315 1.022.472.314.236.55.393.786.707l-1.022 1.336-.236.235c-.078.079-.235.079-.392.079-.079 0-.236 0-.315-.079-.078-.078-.157-.078-.314-.157-.078-.078-.236-.157-.314-.235-.157-.079-.236-.158-.472-.236a1.48 1.48 0 00-.628-.157c-.236-.079-.472-.079-.786-.079-.55 0-1.021.079-1.493.314-.471.158-.785.472-1.178.786-.315.314-.55.786-.707 1.257-.158.472-.236 1.1-.236 1.65 0 .629.078 1.257.236 1.729.157.471.392.943.707 1.257.314.314.628.629 1.1.786.392.157.864.235 1.335.235h.707c.236 0 .393-.078.63-.157.156-.078.392-.157.55-.235.156-.079.313-.236.55-.393.078-.079.156-.079.235-.157.157.078.314.078.393.078zm6.207-4.243h.471c.472 0 .786-.157.943-.393l2.829-4.164c.157-.236.314-.393.55-.471.235-.079.471-.157.707-.157h2.593l-3.772 5.107c-.157.157-.236.314-.393.471a1.642 1.642 0 01-.471.314c.236.079.393.158.629.315.157.157.392.314.471.55l3.85 5.893h-3.143c-.079 0-.236-.079-.314-.079-.079 0-.157-.079-.236-.157-.079-.079-.157-.157-.157-.236l-2.907-4.4c-.079-.157-.236-.314-.393-.314-.157-.079-.393-.079-.629-.079h-.707v5.422h-2.986V5.579h2.986v5.185h.079zm9.035 1.179h4.715v2.2h-4.715v-2.2zm15.872-6.364v1.1c0 .157 0 .314-.079.471-.078.157-.078.314-.235.393l-5.972 8.486h6.05v2.278h-9.821v-1.1c0-.157 0-.236.078-.393.079-.157.079-.235.157-.393l5.972-8.564h-5.736V5.58h9.586zm4.871 12.728h-2.985V5.58h2.985v12.728zm9.193-5.814c.079.236.236.471.315.707.078.236.235.471.314.707.078-.236.236-.471.314-.707.079-.236.236-.471.314-.707l3.222-6.443c.078-.079.078-.157.157-.236.079-.078.157-.078.236-.157.078 0 .157-.078.235-.078h2.593v12.728h-2.593V11c0-.393 0-.707.079-1.179l-3.379 6.522a.802.802 0 01-.392.471 1.484 1.484 0 01-.629.157h-.393c-.236 0-.393-.078-.628-.157a.8.8 0 01-.393-.471l-3.379-6.522c0 .236.079.393.079.629v7.857H110V5.58h2.593c.079 0 .157 0 .236.078.079 0 .157.079.236.157.078.079.157.157.157.236l3.221 6.443zm16.736 0c.079.236.236.471.314.707.079.236.236.471.315.707.078-.236.235-.471.314-.707.078-.236.236-.471.314-.707l3.3-6.443c.079-.079.079-.157.157-.236.079-.078.157-.078.236-.157.079 0 .157-.078.236-.078h2.593v12.728h-2.593V11c0-.393 0-.707.078-1.179l-3.378 6.522a.807.807 0 01-.393.471 1.48 1.48 0 01-.629.157h-.393c-.235 0-.392-.078-.628-.157a.807.807 0 01-.393-.471L129.25 9.82c0 .236.079.393.079.629v7.857h-2.593V5.58h2.593c.079 0 .157 0 .236.078.078 0 .157.079.235.157.079.079.158.157.158.236l3.221 6.443zm18.464-6.914v2.278h-5.185v2.986h4.007v2.2h-4.007v3.064h5.185v2.279h-8.171V5.579h8.171zm4.95 8.014v4.714h-2.985V5.58h4.164c.943 0 1.728.078 2.357.314a4.203 4.203 0 011.571.786c.393.314.708.707.865 1.178.157.472.314.943.314 1.493 0 .393-.079.786-.157 1.179-.079.392-.314.707-.472 1.021-.235.314-.471.55-.785.864a5.026 5.026 0 01-1.1.629c.235.078.393.236.55.393.157.157.314.314.471.55l2.672 4.4h-2.672c-.471 0-.864-.157-1.1-.55l-2.121-3.693c-.079-.157-.236-.314-.315-.314-.157-.079-.314-.079-.55-.079h-.707v-.157zm0-2.043h1.179c.393 0 .707-.079 1.021-.157.315-.079.55-.236.707-.393.158-.157.315-.393.393-.629.079-.235.157-.471.157-.785 0-.55-.157-1.022-.55-1.336-.392-.314-.942-.471-1.65-.471h-1.178v3.771h-.079z" fill="#333646"/><path d="M9.979 0L0 9.9v9.979h19.879V9.9L9.979 0zM8.014 17.443L3.693 13.12l2.043-2.042 2.2 2.2 5.343-5.422L15.32 9.9l-7.307 7.543z" fill="url(#paint0_linear)"/><defs><linearGradient id="paint0_linear" x1="24.173" y1="2.586" x2="-2.634" y2="22.876" gradientUnits="userSpaceOnUse"><stop stop-color="#0F7FEB"/><stop offset="1" stop-color="#00CEFF"/></linearGradient></defs></svg>
