<?xml version="1.0" encoding="iso-8859-1"?>
<!-- Uploaded to: SVG Repo, www.svgrepo.com, Generator: SVG Repo Mixer Tools -->
<svg height="800px" width="800px" version="1.1" id="Layer_1" xmlns="http://www.w3.org/2000/svg" xmlns:xlink="http://www.w3.org/1999/xlink" 
	 viewBox="0 0 512 512" xml:space="preserve">
<g>
	<path style="fill:#C6C5CB;" d="M196.897,49.824v-0.009h-0.002c-0.004-1.404-0.925-2.81-2.767-3.879
		c-3.695-2.145-9.75-2.149-13.455-0.01c-1.853,1.07-2.78,2.48-2.781,3.889l0,0v379.288l0,0c-0.001,1.409,0.923,2.817,2.772,3.885
		c3.7,2.136,9.755,2.141,13.455,0.01c1.856-1.069,2.78-2.482,2.776-3.895l0,0V49.831C196.897,49.829,196.897,49.827,196.897,49.824z
		"/>
	<path style="fill:#C6C5CB;" d="M331.344,127.231v-0.009h-0.002c-0.004-1.404-0.925-2.81-2.767-3.879
		c-3.695-2.145-9.75-2.149-13.455-0.01c-1.853,1.07-2.78,2.48-2.781,3.889l0,0V506.51l0,0c-0.001,1.408,0.923,2.817,2.772,3.885
		c3.7,2.136,9.755,2.141,13.455,0.01c1.856-1.069,2.78-2.482,2.776-3.895l0,0V127.238
		C331.344,127.236,331.344,127.233,331.344,127.231z"/>
</g>
<path style="fill:#02665A;" d="M377.516,138.903L138.634,0.985c-1.882-1.087-3.599-1.239-4.898-0.629l-4.178,2.001
	c-1.465,0.702-2.393,2.382-2.393,4.842v158.743c0,4.648,3.293,10.352,7.318,12.675l238.883,137.919
	c1.961,1.133,3.745,1.255,5.062,0.552l3.942-1.889c1.508-0.68,2.466-2.376,2.466-4.876V151.58
	C384.834,146.932,381.541,141.227,377.516,138.903z"/>
<path style="fill:#008778;" d="M134.482,2.973c-4.025-2.324-7.318-0.422-7.318,4.226v158.742c0,4.648,3.293,10.352,7.318,12.675
	l238.882,137.919c4.025,2.324,7.318,0.422,7.318-4.225V153.568c0-4.648-3.293-10.352-7.318-12.675L134.482,2.973z"/>
<g>
	<path style="fill:#E0E0E2;" d="M374.767,310.513L137.441,173.494c-2.202-1.271-4.362-5.012-4.362-7.552V8.995l237.328,137.02
		c2.202,1.273,4.36,5.012,4.36,7.552V310.513z M139.976,169.103l229.721,132.629V153.567c-0.017-0.76-1.177-2.77-1.828-3.164
		L138.148,17.775v148.165c0.015,0.76,1.177,2.77,1.829,3.163L139.976,169.103L139.976,169.103z"/>
	<g>
		<path style="fill:#E0E0E2;" d="M215.267,108.08c-3.786-2.186-7.156-3.32-10.129-3.41c-2.973-0.091-5.48,0.583-7.542,2.034
			c-2.061,1.433-3.641,3.492-4.709,6.217c-1.085,2.698-1.639,5.756-1.649,9.166c-0.01,3.557,0.574,7.402,1.719,11.498
			c1.161,4.104,2.773,8.119,4.835,12.005c2.062,3.886,4.542,7.515,7.408,10.85c2.867,3.335,6.025,6.008,9.505,8.017
			c1.957,1.13,3.963,1.993,6.019,2.607c2.055,0.596,3.982,0.878,5.782,0.809c1.8-0.069,3.424-0.479,4.872-1.231
			c1.448-0.77,2.544-1.984,3.336-3.631l-7.717-9.57c-0.55,1.196-1.291,2.061-2.209,2.621c-0.917,0.541-1.899,0.861-2.975,0.923
			c-1.077,0.061-2.202-0.089-3.39-0.461c-1.188-0.372-2.327-0.882-3.418-1.512c-2.101-1.213-4.025-2.841-5.787-4.91
			c-1.746-2.061-3.25-4.313-4.496-6.769c-1.262-2.464-2.219-5.029-2.887-7.685c-0.683-2.684-1.014-5.257-1.006-7.708
			c0.006-2.212,0.301-4.257,0.901-6.145c0.6-1.887,1.488-3.369,2.648-4.453c1.175-1.075,2.639-1.67,4.392-1.748
			c1.751-0.096,3.822,0.545,6.197,1.916c1.091,0.63,2.213,1.425,3.351,2.378c1.138,0.934,2.228,2.024,3.285,3.263
			c1.041,1.229,2.017,2.66,2.929,4.257c0.911,1.597,1.678,3.369,2.314,5.306l7.267-1.546c-1.578-4.53-4.008-8.869-7.258-13.016
			C223.606,114.021,219.743,110.664,215.267,108.08"/>
		<path style="fill:#E0E0E2;" d="M249.425,142.758l-9.159-5.288l-0.117,41.198l9.159,5.288L249.425,142.758 M249.471,126.572
			l-9.159-5.288l-0.029,10.452l9.159,5.288L249.471,126.572"/>
		<path style="fill:#E0E0E2;" d="M268.97,140.655l-9.176-5.298l-0.038,13.364l-4.717-2.723l-0.023,8.092l4.717,2.723l-0.067,23.668
			c-0.005,1.843,0.248,3.54,0.741,5.118c0.51,1.586,1.165,2.999,2.012,4.301c0.848,1.321,1.824,2.475,2.931,3.465
			c1.122,1.017,2.325,1.896,3.591,2.628c1.973,1.139,3.835,1.9,5.617,2.302c1.783,0.401,3.292,0.645,4.529,0.731l-1.837-9.406
			c-0.547-0.056-1.268-0.16-2.185-0.32c-0.915-0.159-1.846-0.512-2.809-1.068s-1.764-1.332-2.42-2.302
			c-0.672-0.998-0.99-2.215-0.985-3.689l0.057-20.13l7.523,4.344l0.023-8.092l-7.523-4.344L268.97,140.655"/>
		<path style="fill:#E0E0E2;" d="M316.608,181.545l-8.614-4.974l-8.705,27.1l-9.631-37.686l-9.432-5.446l14.032,49.367
			c-0.455,1.473-0.891,2.661-1.311,3.563c-0.404,0.93-0.824,1.592-1.227,2.024c-0.419,0.404-0.885,0.597-1.383,0.567
			c-0.498-0.029-1.044-0.196-1.637-0.539c-0.497-0.287-1.122-0.722-1.844-1.268c-0.738-0.555-1.491-1.193-2.26-1.895l-0.026,9.124
			c0.817,0.786,1.603,1.461,2.356,2.025c0.753,0.564,1.491,1.065,2.229,1.49c3.096,1.788,5.698,2.367,7.804,1.736
			c2.106-0.611,3.589-2.119,4.464-4.513L316.608,181.545"/>
	</g>
</g>
</svg>